<?xml version="1.0" encoding="UTF-8"?>
<!DOCTYPE svg PUBLIC "-//W3C//DTD SVG 1.1//EN" "http://www.w3.org/Graphics/SVG/1.1/DTD/svg11.dtd">
<svg xmlns="http://www.w3.org/2000/svg" style="background: transparent; background-color: transparent; color-scheme: light;" xmlns:xlink="http://www.w3.org/1999/xlink" version="1.1" width="404px" height="354px" viewBox="-0.5 -0.5 404 354"><defs/><g><g data-cell-id="0"><g data-cell-id="1"><g data-cell-id="3RTvuOMq94ShYfb1Ll1s-1"><g><path d="M 2 2 L 102 2 L 122 22 L 122 82 L 2 82 L 2 2 Z" fill="#6c8ebf" style="fill: rgb(108, 142, 191); stroke: rgb(58, 95, 142);" stroke="#3a5f8e" stroke-width="4" stroke-miterlimit="10" pointer-events="all"/><path d="M 102 2 L 102 22 L 122 22 Z" fill-opacity="0.05" fill="#000000" style="fill: rgb(0, 0, 0);" stroke="none" pointer-events="all"/><path d="M 102 2 L 102 22 L 122 22" fill="none" stroke="#3a5f8e" style="stroke: rgb(58, 95, 142);" stroke-width="4" stroke-miterlimit="10" pointer-events="all"/></g></g><g data-cell-id="3RTvuOMq94ShYfb1Ll1s-2"><g><path d="M 2 92 L 102 92 L 122 112 L 122 172 L 2 172 L 2 92 Z" fill="#6c8ebf" style="fill: rgb(108, 142, 191); stroke: rgb(58, 95, 142);" stroke="#3a5f8e" stroke-width="4" stroke-miterlimit="10" pointer-events="all"/><path d="M 102 92 L 102 112 L 122 112 Z" fill-opacity="0.05" fill="#000000" style="fill: rgb(0, 0, 0);" stroke="none" pointer-events="all"/><path d="M 102 92 L 102 112 L 122 112" fill="none" stroke="#3a5f8e" style="stroke: rgb(58, 95, 142);" stroke-width="4" stroke-miterlimit="10" pointer-events="all"/></g></g><g data-cell-id="3RTvuOMq94ShYfb1Ll1s-3"><g><path d="M 2 182 L 102 182 L 122 202 L 122 262 L 2 262 L 2 182 Z" fill="#6c8ebf" style="fill: rgb(108, 142, 191); stroke: rgb(58, 95, 142);" stroke="#3a5f8e" stroke-width="4" stroke-miterlimit="10" pointer-events="all"/><path d="M 102 182 L 102 202 L 122 202 Z" fill-opacity="0.05" fill="#000000" style="fill: rgb(0, 0, 0);" stroke="none" pointer-events="all"/><path d="M 102 182 L 102 202 L 122 202" fill="none" stroke="#3a5f8e" style="stroke: rgb(58, 95, 142);" stroke-width="4" stroke-miterlimit="10" pointer-events="all"/></g></g><g data-cell-id="3RTvuOMq94ShYfb1Ll1s-4"><g><path d="M 2 272 L 102 272 L 122 292 L 122 352 L 2 352 L 2 272 Z" fill="#6c8ebf" style="fill: rgb(108, 142, 191); stroke: rgb(58, 95, 142);" stroke="#3a5f8e" stroke-width="4" stroke-miterlimit="10" pointer-events="all"/><path d="M 102 272 L 102 292 L 122 292 Z" fill-opacity="0.05" fill="#000000" style="fill: rgb(0, 0, 0);" stroke="none" pointer-events="all"/><path d="M 102 272 L 102 292 L 122 292" fill="none" stroke="#3a5f8e" style="stroke: rgb(58, 95, 142);" stroke-width="4" stroke-miterlimit="10" pointer-events="all"/></g></g><g data-cell-id="3RTvuOMq94ShYfb1Ll1s-5"><g><path d="M 132 132 L 232 132 L 252 152 L 252 212 L 132 212 L 132 132 Z" fill="#a7c7e7" style="fill: rgb(167, 199, 231); stroke: rgb(108, 142, 191);" stroke="#6c8ebf" stroke-width="4" stroke-miterlimit="10" pointer-events="all"/><path d="M 232 132 L 232 152 L 252 152 Z" fill-opacity="0.05" fill="#000000" style="fill: rgb(0, 0, 0);" stroke="none" pointer-events="all"/><path d="M 232 132 L 232 152 L 252 152" fill="none" stroke="#6c8ebf" style="stroke: rgb(108, 142, 191);" stroke-width="4" stroke-miterlimit="10" pointer-events="all"/></g></g><g data-cell-id="3RTvuOMq94ShYfb1Ll1s-7"><g><path d="M 202 182 L 302 182 L 322 202 L 322 262 L 202 262 L 202 182 Z" fill="#a7c7e7" style="fill: rgb(167, 199, 231); stroke: rgb(108, 142, 191);" stroke="#6c8ebf" stroke-width="4" stroke-miterlimit="10" pointer-events="all"/><path d="M 302 182 L 302 202 L 322 202 Z" fill-opacity="0.05" fill="#000000" style="fill: rgb(0, 0, 0);" stroke="none" pointer-events="all"/><path d="M 302 182 L 302 202 L 322 202" fill="none" stroke="#6c8ebf" style="stroke: rgb(108, 142, 191);" stroke-width="4" stroke-miterlimit="10" pointer-events="all"/></g></g><g data-cell-id="3RTvuOMq94ShYfb1Ll1s-8"><g><path d="M 282 272 L 382 272 L 402 292 L 402 352 L 282 352 L 282 272 Z" fill="#dae8fc" style="fill: rgb(218, 232, 252); stroke: rgb(108, 142, 191);" stroke="#6c8ebf" stroke-width="4" stroke-miterlimit="10" pointer-events="all"/><path d="M 382 272 L 382 292 L 402 292 Z" fill-opacity="0.05" fill="#000000" style="fill: rgb(0, 0, 0);" stroke="none" pointer-events="all"/><path d="M 382 272 L 382 292 L 402 292" fill="none" stroke="#6c8ebf" style="stroke: rgb(108, 142, 191);" stroke-width="4" stroke-miterlimit="10" pointer-events="all"/></g></g><g data-cell-id="3RTvuOMq94ShYfb1Ll1s-9"><g><path d="M 252 2 L 352 2 L 372 22 L 372 82 L 252 82 L 252 2 Z" fill="#dae8fc" style="fill: rgb(218, 232, 252); stroke: rgb(108, 142, 191);" stroke="#6c8ebf" stroke-width="4" stroke-miterlimit="10" pointer-events="all"/><path d="M 352 2 L 352 22 L 372 22 Z" fill-opacity="0.05" fill="#000000" style="fill: rgb(0, 0, 0);" stroke="none" pointer-events="all"/><path d="M 352 2 L 352 22 L 372 22" fill="none" stroke="#6c8ebf" style="stroke: rgb(108, 142, 191);" stroke-width="4" stroke-miterlimit="10" pointer-events="all"/></g></g><g data-cell-id="3RTvuOMq94ShYfb1Ll1s-10"><g><rect x="12" y="22" width="70" height="10" rx="1.5" ry="1.5" fill="#ffffff" style="fill: rgb(255, 255, 255);" stroke="none" pointer-events="all"/></g></g><g data-cell-id="3RTvuOMq94ShYfb1Ll1s-11"><g><rect x="12" y="42" width="90" height="10" rx="1.5" ry="1.5" fill="#ffffff" style="fill: rgb(255, 255, 255);" stroke="none" pointer-events="all"/></g></g><g data-cell-id="3RTvuOMq94ShYfb1Ll1s-12"><g><rect x="12" y="112" width="70" height="10" rx="1.5" ry="1.5" fill="#ffffff" style="fill: rgb(255, 255, 255);" stroke="none" pointer-events="all"/></g></g><g data-cell-id="3RTvuOMq94ShYfb1Ll1s-13"><g><rect x="12" y="132" width="40" height="10" rx="1.5" ry="1.5" fill="#ffffff" style="fill: rgb(255, 255, 255);" stroke="none" pointer-events="all"/></g></g><g data-cell-id="3RTvuOMq94ShYfb1Ll1s-14"><g><rect x="12" y="202" width="70" height="10" rx="1.5" ry="1.5" fill="#ffffff" style="fill: rgb(255, 255, 255);" stroke="none" pointer-events="all"/></g></g><g data-cell-id="3RTvuOMq94ShYfb1Ll1s-15"><g><rect x="12" y="222" width="40" height="10" rx="1.5" ry="1.5" fill="#ffffff" style="fill: rgb(255, 255, 255);" stroke="none" pointer-events="all"/></g></g><g data-cell-id="3RTvuOMq94ShYfb1Ll1s-16"><g><rect x="12" y="292" width="30" height="10" rx="1.5" ry="1.5" fill="#ffffff" style="fill: rgb(255, 255, 255);" stroke="none" pointer-events="all"/></g></g><g data-cell-id="3RTvuOMq94ShYfb1Ll1s-17"><g><rect x="12" y="312" width="90" height="20" rx="3" ry="3" fill="#ffffff" style="fill: rgb(255, 255, 255);" stroke="none" pointer-events="all"/></g></g><g data-cell-id="3RTvuOMq94ShYfb1Ll1s-20"><g><rect x="212" y="202" width="70" height="10" rx="1.5" ry="1.5" fill="#ffffff" style="fill: rgb(255, 255, 255);" stroke="none" pointer-events="all"/></g></g><g data-cell-id="3RTvuOMq94ShYfb1Ll1s-21"><g><rect x="212" y="222" width="90" height="20" rx="3" ry="3" fill="#ffffff" style="fill: rgb(255, 255, 255);" stroke="none" pointer-events="all"/></g></g><g data-cell-id="3RTvuOMq94ShYfb1Ll1s-22"><g><rect x="292" y="292" width="40" height="10" rx="1.5" ry="1.5" fill="#ffffff" style="fill: rgb(255, 255, 255);" stroke="none" pointer-events="all"/></g></g><g data-cell-id="3RTvuOMq94ShYfb1Ll1s-23"><g><rect x="292" y="312" width="60" height="10" rx="1.5" ry="1.5" fill="#ffffff" style="fill: rgb(255, 255, 255);" stroke="none" pointer-events="all"/></g></g><g data-cell-id="3RTvuOMq94ShYfb1Ll1s-24"><g><rect x="262" y="22" width="70" height="10" rx="1.5" ry="1.5" fill="#ffffff" style="fill: rgb(255, 255, 255);" stroke="none" pointer-events="all"/></g></g><g data-cell-id="3RTvuOMq94ShYfb1Ll1s-25"><g><rect x="262" y="42" width="90" height="10" rx="1.5" ry="1.5" fill="#ffffff" style="fill: rgb(255, 255, 255);" stroke="none" pointer-events="all"/></g></g><g data-cell-id="3RTvuOMq94ShYfb1Ll1s-6"><g><path d="M 182 42 L 282 42 L 302 62 L 302 122 L 182 122 L 182 42 Z" fill="#a7c7e7" style="fill: rgb(167, 199, 231); stroke: rgb(108, 142, 191);" stroke="#6c8ebf" stroke-width="4" stroke-miterlimit="10" pointer-events="all"/><path d="M 282 42 L 282 62 L 302 62 Z" fill-opacity="0.05" fill="#000000" style="fill: rgb(0, 0, 0);" stroke="none" pointer-events="all"/><path d="M 282 42 L 282 62 L 302 62" fill="none" stroke="#6c8ebf" style="stroke: rgb(108, 142, 191);" stroke-width="4" stroke-miterlimit="10" pointer-events="all"/></g></g><g data-cell-id="3RTvuOMq94ShYfb1Ll1s-18"><g><rect x="192" y="62" width="70" height="10" rx="1.5" ry="1.5" fill="#ffffff" style="fill: rgb(255, 255, 255);" stroke="none" pointer-events="all"/></g></g><g data-cell-id="3RTvuOMq94ShYfb1Ll1s-19"><g><rect x="192" y="82" width="90" height="20" rx="3" ry="3" fill="#ffffff" style="fill: rgb(255, 255, 255);" stroke="none" pointer-events="all"/></g></g><g data-cell-id="3RTvuOMq94ShYfb1Ll1s-26"><g><rect x="142" y="142" width="70" height="10" rx="1.5" ry="1.5" fill="#ffffff" style="fill: rgb(255, 255, 255);" stroke="none" pointer-events="all"/></g></g><g data-cell-id="3RTvuOMq94ShYfb1Ll1s-27"><g><rect x="142" y="162" width="90" height="10" rx="1.5" ry="1.5" fill="#ffffff" style="fill: rgb(255, 255, 255);" stroke="none" pointer-events="all"/></g></g><g data-cell-id="3RTvuOMq94ShYfb1Ll1s-29"><g><rect x="12" y="152" width="90" height="10" rx="1.5" ry="1.5" fill="#ffffff" style="fill: rgb(255, 255, 255);" stroke="none" pointer-events="all"/></g></g><g data-cell-id="3RTvuOMq94ShYfb1Ll1s-30"><g><rect x="72" y="242" width="40" height="10" rx="1.5" ry="1.5" fill="#ffffff" style="fill: rgb(255, 255, 255);" stroke="none" pointer-events="all"/></g></g><g data-cell-id="3RTvuOMq94ShYfb1Ll1s-31"><g><rect x="362" y="332" width="30" height="10" rx="1.5" ry="1.5" fill="#ffffff" style="fill: rgb(255, 255, 255);" stroke="none" pointer-events="all"/></g></g><g data-cell-id="Lni0twgIEqJLVUMW3sJz-1"/><g data-cell-id="Lni0twgIEqJLVUMW3sJz-2"/><g data-cell-id="Lni0twgIEqJLVUMW3sJz-3"/><g data-cell-id="Lni0twgIEqJLVUMW3sJz-4"/><g data-cell-id="Lni0twgIEqJLVUMW3sJz-5"/></g></g></g></svg>