<?xml version="1.0" encoding="UTF-8"?>
<!DOCTYPE svg PUBLIC "-//W3C//DTD SVG 1.1//EN" "http://www.w3.org/Graphics/SVG/1.1/DTD/svg11.dtd">
<svg xmlns="http://www.w3.org/2000/svg" style="background: transparent; background-color: transparent; color-scheme: light;" xmlns:xlink="http://www.w3.org/1999/xlink" version="1.1" width="444px" height="384px" viewBox="-0.5 -0.5 444 384"><defs/><g><g data-cell-id="0"><g data-cell-id="1"><g data-cell-id="3RTvuOMq94ShYfb1Ll1s-1"/><g data-cell-id="3RTvuOMq94ShYfb1Ll1s-2"/><g data-cell-id="3RTvuOMq94ShYfb1Ll1s-3"/><g data-cell-id="3RTvuOMq94ShYfb1Ll1s-4"/><g data-cell-id="3RTvuOMq94ShYfb1Ll1s-5"/><g data-cell-id="3RTvuOMq94ShYfb1Ll1s-7"/><g data-cell-id="3RTvuOMq94ShYfb1Ll1s-8"/><g data-cell-id="3RTvuOMq94ShYfb1Ll1s-9"/><g data-cell-id="3RTvuOMq94ShYfb1Ll1s-10"/><g data-cell-id="3RTvuOMq94ShYfb1Ll1s-11"/><g data-cell-id="3RTvuOMq94ShYfb1Ll1s-12"/><g data-cell-id="3RTvuOMq94ShYfb1Ll1s-13"/><g data-cell-id="3RTvuOMq94ShYfb1Ll1s-14"/><g data-cell-id="3RTvuOMq94ShYfb1Ll1s-15"/><g data-cell-id="3RTvuOMq94ShYfb1Ll1s-16"/><g data-cell-id="3RTvuOMq94ShYfb1Ll1s-17"/><g data-cell-id="3RTvuOMq94ShYfb1Ll1s-20"/><g data-cell-id="3RTvuOMq94ShYfb1Ll1s-21"/><g data-cell-id="3RTvuOMq94ShYfb1Ll1s-22"/><g data-cell-id="3RTvuOMq94ShYfb1Ll1s-23"/><g data-cell-id="3RTvuOMq94ShYfb1Ll1s-24"/><g data-cell-id="3RTvuOMq94ShYfb1Ll1s-25"/><g data-cell-id="3RTvuOMq94ShYfb1Ll1s-6"/><g data-cell-id="3RTvuOMq94ShYfb1Ll1s-18"/><g data-cell-id="3RTvuOMq94ShYfb1Ll1s-19"/><g data-cell-id="3RTvuOMq94ShYfb1Ll1s-26"/><g data-cell-id="3RTvuOMq94ShYfb1Ll1s-27"/><g data-cell-id="3RTvuOMq94ShYfb1Ll1s-29"/><g data-cell-id="3RTvuOMq94ShYfb1Ll1s-30"/><g data-cell-id="3RTvuOMq94ShYfb1Ll1s-31"/><g data-cell-id="Lni0twgIEqJLVUMW3sJz-1"/><g data-cell-id="Lni0twgIEqJLVUMW3sJz-2"/><g data-cell-id="Lni0twgIEqJLVUMW3sJz-3"/><g data-cell-id="Lni0twgIEqJLVUMW3sJz-4"/><g data-cell-id="Lni0twgIEqJLVUMW3sJz-5"/><g data-cell-id="EzRQDrZ3iLiq-JdrMKbm-31"><g/><g data-cell-id="EzRQDrZ3iLiq-JdrMKbm-1"><g><path d="M 302 92 L 402 92 L 422 112 L 422 172 L 302 172 L 302 92 Z" fill="#6c8ebf" style="fill: rgb(108, 142, 191); stroke: rgb(58, 95, 142);" stroke="#3a5f8e" stroke-width="4" stroke-miterlimit="10" pointer-events="all"/><path d="M 402 92 L 402 112 L 422 112 Z" fill-opacity="0.05" fill="#000000" style="fill: rgb(0, 0, 0);" stroke="none" pointer-events="all"/><path d="M 402 92 L 402 112 L 422 112" fill="none" stroke="#3a5f8e" style="stroke: rgb(58, 95, 142);" stroke-width="4" stroke-miterlimit="10" pointer-events="all"/></g></g><g data-cell-id="EzRQDrZ3iLiq-JdrMKbm-9"><g><rect x="312" y="112" width="30" height="10" rx="1.5" ry="1.5" fill="#ffffff" style="fill: rgb(255, 255, 255);" stroke="none" pointer-events="all"/></g></g><g data-cell-id="EzRQDrZ3iLiq-JdrMKbm-10"><g><rect x="312" y="132" width="100" height="10" rx="1.5" ry="1.5" fill="#ffffff" style="fill: rgb(255, 255, 255);" stroke="none" pointer-events="all"/></g></g></g><g data-cell-id="EzRQDrZ3iLiq-JdrMKbm-32"><g/><g data-cell-id="EzRQDrZ3iLiq-JdrMKbm-2"><g><path d="M 162 122 L 262 122 L 282 142 L 282 202 L 162 202 L 162 122 Z" fill="#6c8ebf" style="fill: rgb(108, 142, 191); stroke: rgb(58, 95, 142);" stroke="#3a5f8e" stroke-width="4" stroke-miterlimit="10" pointer-events="all"/><path d="M 262 122 L 262 142 L 282 142 Z" fill-opacity="0.05" fill="#000000" style="fill: rgb(0, 0, 0);" stroke="none" pointer-events="all"/><path d="M 262 122 L 262 142 L 282 142" fill="none" stroke="#3a5f8e" style="stroke: rgb(58, 95, 142);" stroke-width="4" stroke-miterlimit="10" pointer-events="all"/></g></g><g data-cell-id="EzRQDrZ3iLiq-JdrMKbm-11"><g><rect x="172" y="142" width="70" height="10" rx="1.5" ry="1.5" fill="#ffffff" style="fill: rgb(255, 255, 255);" stroke="none" pointer-events="all"/></g></g><g data-cell-id="EzRQDrZ3iLiq-JdrMKbm-12"><g><rect x="172" y="162" width="40" height="10" rx="1.5" ry="1.5" fill="#ffffff" style="fill: rgb(255, 255, 255);" stroke="none" pointer-events="all"/></g></g><g data-cell-id="EzRQDrZ3iLiq-JdrMKbm-28"><g><rect x="172" y="182" width="90" height="10" rx="1.5" ry="1.5" fill="#ffffff" style="fill: rgb(255, 255, 255);" stroke="none" pointer-events="all"/></g></g></g><g data-cell-id="EzRQDrZ3iLiq-JdrMKbm-33"><g/><g data-cell-id="EzRQDrZ3iLiq-JdrMKbm-3"><g><path d="M 162 212 L 262 212 L 282 232 L 282 292 L 162 292 L 162 212 Z" fill="#6c8ebf" style="fill: rgb(108, 142, 191); stroke: rgb(58, 95, 142);" stroke="#3a5f8e" stroke-width="4" stroke-miterlimit="10" pointer-events="all"/><path d="M 262 212 L 262 232 L 282 232 Z" fill-opacity="0.05" fill="#000000" style="fill: rgb(0, 0, 0);" stroke="none" pointer-events="all"/><path d="M 262 212 L 262 232 L 282 232" fill="none" stroke="#3a5f8e" style="stroke: rgb(58, 95, 142);" stroke-width="4" stroke-miterlimit="10" pointer-events="all"/></g></g><g data-cell-id="EzRQDrZ3iLiq-JdrMKbm-13"><g><rect x="172" y="232" width="70" height="10" rx="1.5" ry="1.5" fill="#ffffff" style="fill: rgb(255, 255, 255);" stroke="none" pointer-events="all"/></g></g><g data-cell-id="EzRQDrZ3iLiq-JdrMKbm-14"><g><rect x="172" y="252" width="40" height="10" rx="1.5" ry="1.5" fill="#ffffff" style="fill: rgb(255, 255, 255);" stroke="none" pointer-events="all"/></g></g><g data-cell-id="EzRQDrZ3iLiq-JdrMKbm-29"><g><rect x="232" y="272" width="40" height="10" rx="1.5" ry="1.5" fill="#ffffff" style="fill: rgb(255, 255, 255);" stroke="none" pointer-events="all"/></g></g></g><g data-cell-id="EzRQDrZ3iLiq-JdrMKbm-34"><g/><g data-cell-id="EzRQDrZ3iLiq-JdrMKbm-4"><g><path d="M 162 302 L 262 302 L 282 322 L 282 382 L 162 382 L 162 302 Z" fill="#6c8ebf" style="fill: rgb(108, 142, 191); stroke: rgb(58, 95, 142);" stroke="#3a5f8e" stroke-width="4" stroke-miterlimit="10" pointer-events="all"/><path d="M 262 302 L 262 322 L 282 322 Z" fill-opacity="0.05" fill="#000000" style="fill: rgb(0, 0, 0);" stroke="none" pointer-events="all"/><path d="M 262 302 L 262 322 L 282 322" fill="none" stroke="#3a5f8e" style="stroke: rgb(58, 95, 142);" stroke-width="4" stroke-miterlimit="10" pointer-events="all"/></g></g><g data-cell-id="EzRQDrZ3iLiq-JdrMKbm-15"><g><rect x="172" y="322" width="30" height="10" rx="1.5" ry="1.5" fill="#ffffff" style="fill: rgb(255, 255, 255);" stroke="none" pointer-events="all"/></g></g><g data-cell-id="EzRQDrZ3iLiq-JdrMKbm-16"><g><rect x="172" y="342" width="90" height="20" rx="3" ry="3" fill="#ffffff" style="fill: rgb(255, 255, 255);" stroke="none" pointer-events="all"/></g></g></g><g data-cell-id="EzRQDrZ3iLiq-JdrMKbm-35"><g/><g data-cell-id="EzRQDrZ3iLiq-JdrMKbm-7"><g><path d="M 22 182 L 122 182 L 142 202 L 142 262 L 22 262 L 22 182 Z" fill="#dae8fc" style="fill: rgb(218, 232, 252); stroke: rgb(108, 142, 191);" stroke="#6c8ebf" stroke-width="4" stroke-miterlimit="10" pointer-events="all"/><path d="M 122 182 L 122 202 L 142 202 Z" fill-opacity="0.05" fill="#000000" style="fill: rgb(0, 0, 0);" stroke="none" pointer-events="all"/><path d="M 122 182 L 122 202 L 142 202" fill="none" stroke="#6c8ebf" style="stroke: rgb(108, 142, 191);" stroke-width="4" stroke-miterlimit="10" pointer-events="all"/></g></g><g data-cell-id="EzRQDrZ3iLiq-JdrMKbm-19"><g><rect x="32" y="202" width="40" height="10" rx="1.5" ry="1.5" fill="#ffffff" style="fill: rgb(255, 255, 255);" stroke="none" pointer-events="all"/></g></g><g data-cell-id="EzRQDrZ3iLiq-JdrMKbm-20"><g><rect x="32" y="222" width="60" height="10" rx="1.5" ry="1.5" fill="#ffffff" style="fill: rgb(255, 255, 255);" stroke="none" pointer-events="all"/></g></g><g data-cell-id="EzRQDrZ3iLiq-JdrMKbm-30"><g><rect x="102" y="242" width="30" height="10" rx="1.5" ry="1.5" fill="#ffffff" style="fill: rgb(255, 255, 255);" stroke="none" pointer-events="all"/></g></g></g><g data-cell-id="EzRQDrZ3iLiq-JdrMKbm-36"><g/><g data-cell-id="EzRQDrZ3iLiq-JdrMKbm-8"><g><path d="M 162 32 L 262 32 L 282 52 L 282 112 L 162 112 L 162 32 Z" fill="#dae8fc" style="fill: rgb(218, 232, 252); stroke: rgb(108, 142, 191);" stroke="#6c8ebf" stroke-width="4" stroke-miterlimit="10" pointer-events="all"/><path d="M 262 32 L 262 52 L 282 52 Z" fill-opacity="0.05" fill="#000000" style="fill: rgb(0, 0, 0);" stroke="none" pointer-events="all"/><path d="M 262 32 L 262 52 L 282 52" fill="none" stroke="#6c8ebf" style="stroke: rgb(108, 142, 191);" stroke-width="4" stroke-miterlimit="10" pointer-events="all"/></g></g><g data-cell-id="EzRQDrZ3iLiq-JdrMKbm-21"><g><rect x="172" y="52" width="70" height="10" rx="1.5" ry="1.5" fill="#ffffff" style="fill: rgb(255, 255, 255);" stroke="none" pointer-events="all"/></g></g><g data-cell-id="EzRQDrZ3iLiq-JdrMKbm-22"><g><rect x="172" y="72" width="90" height="10" rx="1.5" ry="1.5" fill="#ffffff" style="fill: rgb(255, 255, 255);" stroke="none" pointer-events="all"/></g></g><g data-cell-id="EzRQDrZ3iLiq-JdrMKbm-72"><g><rect x="252" y="92" width="10" height="10" rx="1.5" ry="1.5" fill="#ffffff" style="fill: rgb(255, 255, 255);" stroke="none" pointer-events="all"/></g></g></g><g data-cell-id="EzRQDrZ3iLiq-JdrMKbm-37"><g/><g data-cell-id="EzRQDrZ3iLiq-JdrMKbm-38"><g><path d="M 2 2 L 102 2 L 122 22 L 122 82 L 2 82 L 2 2 Z" fill="#6c8ebf" style="fill: rgb(108, 142, 191); stroke: rgb(58, 95, 142);" stroke="#3a5f8e" stroke-width="4" stroke-miterlimit="10" pointer-events="all"/><path d="M 102 2 L 102 22 L 122 22 Z" fill-opacity="0.05" fill="#000000" style="fill: rgb(0, 0, 0);" stroke="none" pointer-events="all"/><path d="M 102 2 L 102 22 L 122 22" fill="none" stroke="#3a5f8e" style="stroke: rgb(58, 95, 142);" stroke-width="4" stroke-miterlimit="10" pointer-events="all"/></g></g><g data-cell-id="EzRQDrZ3iLiq-JdrMKbm-39"><g><rect x="12" y="22" width="70" height="10" rx="1.5" ry="1.5" fill="#ffffff" style="fill: rgb(255, 255, 255);" stroke="none" pointer-events="all"/></g></g><g data-cell-id="EzRQDrZ3iLiq-JdrMKbm-40"><g><rect x="12" y="42" width="90" height="20" rx="3" ry="3" fill="#ffffff" style="fill: rgb(255, 255, 255);" stroke="none" pointer-events="all"/></g></g></g><g data-cell-id="EzRQDrZ3iLiq-JdrMKbm-41"><g/><g data-cell-id="EzRQDrZ3iLiq-JdrMKbm-42"><g><path d="M 22 92 L 122 92 L 142 112 L 142 172 L 22 172 L 22 92 Z" fill="#6c8ebf" style="fill: rgb(108, 142, 191); stroke: rgb(58, 95, 142);" stroke="#3a5f8e" stroke-width="4" stroke-miterlimit="10" pointer-events="all"/><path d="M 122 92 L 122 112 L 142 112 Z" fill-opacity="0.05" fill="#000000" style="fill: rgb(0, 0, 0);" stroke="none" pointer-events="all"/><path d="M 122 92 L 122 112 L 142 112" fill="none" stroke="#3a5f8e" style="stroke: rgb(58, 95, 142);" stroke-width="4" stroke-miterlimit="10" pointer-events="all"/></g></g><g data-cell-id="EzRQDrZ3iLiq-JdrMKbm-43"><g><rect x="32" y="112" width="70" height="10" rx="1.5" ry="1.5" fill="#ffffff" style="fill: rgb(255, 255, 255);" stroke="none" pointer-events="all"/></g></g><g data-cell-id="EzRQDrZ3iLiq-JdrMKbm-44"><g><rect x="32" y="132" width="90" height="10" rx="1.5" ry="1.5" fill="#ffffff" style="fill: rgb(255, 255, 255);" stroke="none" pointer-events="all"/></g></g></g><g data-cell-id="EzRQDrZ3iLiq-JdrMKbm-46"><g/><g data-cell-id="EzRQDrZ3iLiq-JdrMKbm-47"><g><path d="M 322 2 L 422 2 L 442 22 L 442 82 L 322 82 L 322 2 Z" fill="#6c8ebf" style="fill: rgb(108, 142, 191); stroke: rgb(58, 95, 142);" stroke="#3a5f8e" stroke-width="4" stroke-miterlimit="10" pointer-events="all"/><path d="M 422 2 L 422 22 L 442 22 Z" fill-opacity="0.05" fill="#000000" style="fill: rgb(0, 0, 0);" stroke="none" pointer-events="all"/><path d="M 422 2 L 422 22 L 442 22" fill="none" stroke="#3a5f8e" style="stroke: rgb(58, 95, 142);" stroke-width="4" stroke-miterlimit="10" pointer-events="all"/></g></g><g data-cell-id="EzRQDrZ3iLiq-JdrMKbm-48"><g><rect x="332" y="22" width="70" height="10" rx="1.5" ry="1.5" fill="#ffffff" style="fill: rgb(255, 255, 255);" stroke="none" pointer-events="all"/></g></g><g data-cell-id="EzRQDrZ3iLiq-JdrMKbm-49"><g><rect x="332" y="42" width="70" height="10" rx="1.5" ry="1.5" fill="#ffffff" style="fill: rgb(255, 255, 255);" stroke="none" pointer-events="all"/></g></g><g data-cell-id="EzRQDrZ3iLiq-JdrMKbm-50"><g><rect x="332" y="62" width="20" height="10" rx="1.5" ry="1.5" fill="#ffffff" style="fill: rgb(255, 255, 255);" stroke="none" pointer-events="all"/></g></g><g data-cell-id="EzRQDrZ3iLiq-JdrMKbm-67"><g><rect x="402" y="62" width="20" height="10" rx="1.5" ry="1.5" fill="#ffffff" style="fill: rgb(255, 255, 255);" stroke="none" pointer-events="all"/></g></g></g><g data-cell-id="EzRQDrZ3iLiq-JdrMKbm-51"><g/><g data-cell-id="EzRQDrZ3iLiq-JdrMKbm-52"><g><path d="M 22 272 L 122 272 L 142 292 L 142 352 L 22 352 L 22 272 Z" fill="#dae8fc" style="fill: rgb(218, 232, 252); stroke: rgb(108, 142, 191);" stroke="#6c8ebf" stroke-width="4" stroke-miterlimit="10" pointer-events="all"/><path d="M 122 272 L 122 292 L 142 292 Z" fill-opacity="0.05" fill="#000000" style="fill: rgb(0, 0, 0);" stroke="none" pointer-events="all"/><path d="M 122 272 L 122 292 L 142 292" fill="none" stroke="#6c8ebf" style="stroke: rgb(108, 142, 191);" stroke-width="4" stroke-miterlimit="10" pointer-events="all"/></g></g><g data-cell-id="EzRQDrZ3iLiq-JdrMKbm-53"><g><rect x="32" y="292" width="40" height="10" rx="1.5" ry="1.5" fill="#ffffff" style="fill: rgb(255, 255, 255);" stroke="none" pointer-events="all"/></g></g><g data-cell-id="EzRQDrZ3iLiq-JdrMKbm-54"><g><rect x="32" y="312" width="80" height="10" rx="1.5" ry="1.5" fill="#ffffff" style="fill: rgb(255, 255, 255);" stroke="none" pointer-events="all"/></g></g><g data-cell-id="EzRQDrZ3iLiq-JdrMKbm-55"><g><rect x="32" y="332" width="30" height="10" rx="1.5" ry="1.5" fill="#ffffff" style="fill: rgb(255, 255, 255);" stroke="none" pointer-events="all"/></g></g></g><g data-cell-id="EzRQDrZ3iLiq-JdrMKbm-56"><g/><g data-cell-id="EzRQDrZ3iLiq-JdrMKbm-57"><g><path d="M 302 182 L 402 182 L 422 202 L 422 262 L 302 262 L 302 182 Z" fill="#dae8fc" style="fill: rgb(218, 232, 252); stroke: rgb(108, 142, 191);" stroke="#6c8ebf" stroke-width="4" stroke-miterlimit="10" pointer-events="all"/><path d="M 402 182 L 402 202 L 422 202 Z" fill-opacity="0.05" fill="#000000" style="fill: rgb(0, 0, 0);" stroke="none" pointer-events="all"/><path d="M 402 182 L 402 202 L 422 202" fill="none" stroke="#6c8ebf" style="stroke: rgb(108, 142, 191);" stroke-width="4" stroke-miterlimit="10" pointer-events="all"/></g></g><g data-cell-id="EzRQDrZ3iLiq-JdrMKbm-58"><g><rect x="312" y="202" width="70" height="10" rx="1.5" ry="1.5" fill="#ffffff" style="fill: rgb(255, 255, 255);" stroke="none" pointer-events="all"/></g></g><g data-cell-id="EzRQDrZ3iLiq-JdrMKbm-59"><g><rect x="312" y="222" width="90" height="10" rx="1.5" ry="1.5" fill="#ffffff" style="fill: rgb(255, 255, 255);" stroke="none" pointer-events="all"/></g></g></g><g data-cell-id="EzRQDrZ3iLiq-JdrMKbm-60"><g/><g data-cell-id="EzRQDrZ3iLiq-JdrMKbm-61"><g><path d="M 302 272 L 402 272 L 422 292 L 422 352 L 302 352 L 302 272 Z" fill="#dae8fc" style="fill: rgb(218, 232, 252); stroke: rgb(108, 142, 191);" stroke="#6c8ebf" stroke-width="4" stroke-miterlimit="10" pointer-events="all"/><path d="M 402 272 L 402 292 L 422 292 Z" fill-opacity="0.05" fill="#000000" style="fill: rgb(0, 0, 0);" stroke="none" pointer-events="all"/><path d="M 402 272 L 402 292 L 422 292" fill="none" stroke="#6c8ebf" style="stroke: rgb(108, 142, 191);" stroke-width="4" stroke-miterlimit="10" pointer-events="all"/></g></g><g data-cell-id="EzRQDrZ3iLiq-JdrMKbm-62"><g><rect x="312" y="292" width="40" height="10" rx="1.5" ry="1.5" fill="#ffffff" style="fill: rgb(255, 255, 255);" stroke="none" pointer-events="all"/></g></g><g data-cell-id="EzRQDrZ3iLiq-JdrMKbm-63"><g><rect x="312" y="312" width="60" height="10" rx="1.5" ry="1.5" fill="#ffffff" style="fill: rgb(255, 255, 255);" stroke="none" pointer-events="all"/></g></g><g data-cell-id="EzRQDrZ3iLiq-JdrMKbm-64"><g><rect x="382" y="332" width="30" height="10" rx="1.5" ry="1.5" fill="#ffffff" style="fill: rgb(255, 255, 255);" stroke="none" pointer-events="all"/></g></g></g></g></g></g></svg>